<?xml version="1.0" encoding="UTF-8"?>
<svg xmlns="http://www.w3.org/2000/svg" xmlns:xlink="http://www.w3.org/1999/xlink" width="30pt" height="30pt" viewBox="0 0 30 30" version="1.1">
<g id="surface10667842">
<rect x="0" y="0" width="30" height="30" style="fill:rgb(100%,92.941176%,89.803922%);fill-opacity:1;stroke:none;"/>
<path style=" stroke:none;fill-rule:nonzero;fill:rgb(22.745098%,19.215686%,20%);fill-opacity:1;" d="M 15 2.5 C 8.097656 2.5 2.5 8.097656 2.5 15 C 2.5 21.265625 7.117188 26.441406 13.132812 27.34375 L 13.132812 18.3125 L 10.039062 18.3125 L 10.039062 15.027344 L 13.132812 15.027344 L 13.132812 12.839844 C 13.132812 9.21875 14.894531 7.632812 17.902344 7.632812 C 19.34375 7.632812 20.105469 7.738281 20.46875 7.785156 L 20.46875 10.652344 L 18.414062 10.652344 C 17.136719 10.652344 16.691406 11.863281 16.691406 13.230469 L 16.691406 15.027344 L 20.433594 15.027344 L 19.925781 18.3125 L 16.691406 18.3125 L 16.691406 27.371094 C 22.792969 26.546875 27.5 21.328125 27.5 15 C 27.5 8.097656 21.902344 2.5 15 2.5 Z M 15 2.5 "/>
</g>
</svg>
