<svg xmlns="http://www.w3.org/2000/svg" width="34" height="34" viewBox="0 0 24 24">
    <g fill="none" fill-rule="evenodd">
        <path fill="#3a3133" d="M-1258-2580H182V146h-1440z"/>
        <g fill="#fceeea">
            <path d="M21.217 16.664a4.553 4.553 0 0 1-4.553 4.553H7.336a4.553 4.553 0 0 1-4.553-4.553V7.336a4.553 4.553 0 0 1 4.553-4.553h9.328a4.553 4.553 0 0 1 4.553 4.553v9.328zM16.664.462H7.336A6.882 6.882 0 0 0 .462 7.336v9.328a6.882 6.882 0 0 0 6.874 6.874h9.328a6.883 6.883 0 0 0 6.874-6.874V7.336A6.882 6.882 0 0 0 16.664.462z"/>
            <path d="M12 15.525a3.525 3.525 0 1 1 0-7.05 3.525 3.525 0 0 1 0 7.05m0-9.294A5.776 5.776 0 0 0 6.23 12c0 3.18 2.589 5.768 5.77 5.768A5.776 5.776 0 0 0 17.77 12 5.776 5.776 0 0 0 12 6.23M18.923 6.23a1.154 1.154 0 1 1-2.308 0 1.154 1.154 0 0 1 2.308 0"/>
        </g>
    </g>
</svg>
