<svg width="160" height="62" viewBox="0 0 160 62" fill="none" xmlns="http://www.w3.org/2000/svg">
<path d="M122.085 1.04475H131.289V35.4583C134.275 31.918 138.496 26.8995 143.954 20.4026L144.061 20.2753H156.026L155.533 20.8614C149.271 28.3213 144.939 33.4934 142.534 36.3782L159.008 62H148.085L136.327 43.7223C133.749 46.7731 132.069 48.7269 131.289 49.5756V62H122.085V1.04475Z" fill="#3A3133"/>
<path d="M17.9151 20.2335C14.9385 20.2335 12.2348 20.8434 9.81097 22.0695L9.80289 22.0736L9.79501 22.0781C9.59309 22.1935 9.39475 22.3126 9.2 22.4354V20.2753H0V62H9.2V40.8256C9.22774 37.5461 9.82082 34.983 10.9468 33.1064L10.9486 33.1034C12.3804 30.6639 14.6782 29.4335 17.9151 29.4335C21.205 29.4335 23.5297 30.7036 24.9628 33.2248C26.064 35.1585 26.6301 37.7797 26.6301 41.1167V62H35.8301V40.9509C35.8579 37.6431 36.4372 35.0505 37.5372 33.1446C38.9979 30.676 41.3108 29.4335 44.5452 29.4335C47.8351 29.4335 50.1597 30.7033 51.5928 33.2246L51.5948 33.228C52.7223 35.1609 53.302 37.7808 53.302 41.1167V62H62.4602V41.1167C62.4602 36.6121 61.6014 32.6932 59.8697 29.3717C58.1657 26.0778 55.7588 23.6388 52.6499 22.0699C50.2528 20.843 47.5485 20.2335 44.5452 20.2335C41.5686 20.2335 38.8649 20.8432 36.441 22.0694L36.4325 22.074C34.4558 23.1425 32.8312 24.6942 31.558 26.7191C30.049 24.7128 28.202 23.1611 26.0184 22.0692C23.5948 20.8432 20.8913 20.2335 17.9151 20.2335Z" fill="#3A3133"/>
<path d="M68.8955 20.4339V62H78.0955V20.4397C75.2626 21.7794 71.8871 21.8603 68.8955 20.4339Z" fill="#3A3133"/>
<path d="M100.144 20.2335C94.8747 20.2335 90.8009 21.5724 87.9816 24.3048C85.6243 26.5759 84.4443 29.4009 84.4443 32.7556C84.4443 36.0834 85.6249 38.9072 87.98 41.2049L87.9808 41.2057C90.8001 43.9387 94.8742 45.2778 100.144 45.2778C100.968 45.2778 101.734 45.319 102.443 45.4008C103.368 45.5096 104.158 45.6987 104.819 45.963L104.826 45.9658C105.676 46.2846 106.284 46.7018 106.678 47.2011C107.069 47.6959 107.27 48.2951 107.27 49.018C107.27 49.7409 107.069 50.3444 106.677 50.847C106.281 51.3541 105.672 51.7814 104.822 52.1138L104.819 52.1148C104.158 52.3792 103.368 52.5682 102.443 52.677C101.734 52.7588 100.968 52.8 100.144 52.8C99.3195 52.8 98.5531 52.7588 97.8439 52.677C96.9196 52.5682 96.1295 52.3791 95.4686 52.1147L95.4613 52.112C94.611 51.7931 93.9992 51.3755 93.5972 50.8745C93.1987 50.3779 92.9881 49.777 92.9754 49.0535L92.9688 48.6742L83.797 49.4007L83.8179 49.75C84.0184 53.1018 85.3411 55.8804 87.7825 58.0632C90.7386 60.7037 94.8756 62 100.144 62C105.609 62 109.85 60.6043 112.808 57.7613C115.248 55.4068 116.47 52.4845 116.47 49.018C116.47 45.5785 115.247 42.6699 112.807 40.3161C109.849 37.473 105.609 36.0778 100.144 36.0778C99.376 36.0778 98.6665 36.0367 98.0145 35.9552C97.1692 35.846 96.4582 35.6838 95.8767 35.4724C95.0801 35.1803 94.5143 34.8032 94.1485 34.3581C93.7872 33.9185 93.6025 33.3908 93.6025 32.7556C93.6025 32.1205 93.7872 31.5927 94.1485 31.1532C94.5143 30.708 95.0801 30.331 95.8767 30.0389C96.4582 29.8275 97.1692 29.6652 98.0145 29.5561C98.6665 29.4746 99.376 29.4335 100.144 29.4335C100.883 29.4335 101.579 29.4747 102.232 29.5563L102.24 29.5571C103.051 29.6382 103.74 29.7991 104.315 30.034L104.322 30.0371L104.33 30.0399C105.115 30.3193 105.68 30.678 106.053 31.1002C106.421 31.5168 106.619 32.0124 106.643 32.6033L106.659 32.9733L115.826 32.2472L115.8 31.8939C115.571 28.709 114.275 26.0578 111.919 23.9605C109.102 21.4599 105.16 20.2335 100.144 20.2335Z" fill="#3A3133"/>
<path fill-rule="evenodd" clip-rule="evenodd" d="M77.2343 0L74.9283 1.1402L75.2217 4.16652C72.3299 3.40771 69.1749 4.63339 67.6079 7.34752C65.7296 10.6009 66.8443 14.7611 70.0977 16.6394C73.3511 18.5178 77.5112 17.4031 79.3896 14.1497C80.9562 11.4362 80.4408 8.09201 78.339 5.96696L81.1073 4.7076L80.9417 2.14044L77.2343 0ZM75.4729 7.32933C73.5845 6.23906 71.1698 6.88608 70.0795 8.77448C68.9892 10.6629 69.6362 13.0776 71.5246 14.1679C73.413 15.2581 75.8277 14.6111 76.918 12.7227C78.0083 10.8343 77.3613 8.41961 75.4729 7.32933Z" fill="#FC6F9E" fill-opacity="0.75"/>
</svg>
