<svg width="16" height="18" viewBox="0 0 16 18" fill="none" xmlns="http://www.w3.org/2000/svg">
<path fill-rule="evenodd" clip-rule="evenodd" d="M11.2343 0L8.92833 1.1402L9.22174 4.16652C6.32993 3.40771 3.17492 4.63339 1.60791 7.34752C-0.270444 10.6009 0.844259 14.7611 4.09767 16.6394C7.35109 18.5178 11.5112 17.4031 13.3896 14.1497C14.9562 11.4362 14.4408 8.09201 12.339 5.96696L15.1073 4.7076L14.9417 2.14044L11.2343 0ZM9.47286 7.32933C7.58445 6.23906 5.16976 6.88608 4.07949 8.77448C2.98922 10.6629 3.63623 13.0776 5.52464 14.1679C7.41304 15.2581 9.82773 14.6111 10.918 12.7227C12.0083 10.8343 11.3613 8.41961 9.47286 7.32933Z" fill="#3a3133"/>
</svg>
