<svg xmlns="http://www.w3.org/2000/svg" width="39" height="34" viewBox="0 0 30 24">
    <g fill="none" fill-rule="evenodd">
        <path fill="#3a3133" d="M-1322-2580H118V146h-1440z"/>
        <path fill="rgb(255, 234, 229)" d="M30 2.84a12.47 12.47 0 0 1-3.535.955A6.094 6.094 0 0 0 29.17.443a12.462 12.462 0 0 1-3.908 1.47A6.193 6.193 0 0 0 20.77 0c-3.4 0-6.154 2.712-6.154 6.059 0 .474.054.937.159 1.38A17.567 17.567 0 0 1 2.089 1.11a5.963 5.963 0 0 0-.834 3.046c0 2.101 1.087 3.956 2.738 5.043a6.197 6.197 0 0 1-2.787-.758l-.001.077c0 2.935 2.121 5.384 4.937 5.94a6.258 6.258 0 0 1-2.78.105c.784 2.406 3.057 4.158 5.75 4.207a12.474 12.474 0 0 1-7.644 2.593c-.497 0-.986-.028-1.468-.084A17.626 17.626 0 0 0 9.435 24c11.321 0 17.512-9.233 17.512-17.239 0-.263-.006-.524-.018-.784A12.377 12.377 0 0 0 30 2.84"/>
    </g>
</svg>
